#!OML:ASF F:\VICON\USERDATA\INSTALL\rory3\rory3.ASF
:FULLY-SPECIFIED
:DEGREES
272
root 0.870471 25.3507 -4.02927 6.65865 -3.36969 0.831611
lowerback 14.4635 -0.54239 -4.57112
upperback 3.00283 -1.17029 4.21759
thorax -4.73414 -0.506079 7.31853
lowerneck -3.66274 -0.76552 -14.0769
upperneck 30.4514 -0.00966792 3.13059
head 10.4074 -1.24061 3.55835
rclavicle 1.90833e-014 -3.26007e-014
rhumerus -23.697 12.5115 -72.5146
rradius 40.9799
rwrist 2.5696
rhand -11.3885 11.002
rfingers 7.12502
rthumb 14.6462 -18.4608
lclavicle 1.90833e-014 -3.26007e-014
lhumerus -36.6947 -0.564605 64.6684
lradius 35.1432
lwrist -11.3895
lhand -20.8005 18.1371
lfingers 7.12502
lthumb 5.56695 48.044
rfemur -24.5816 -6.84732 23.7774
rtibia 42.1334
rfoot 21.2488 -5.48682
rtoes 11.6781
lfemur -24.8676 4.18942 -20.6659
ltibia 43.5314
lfoot 23.0433 -4.62702
ltoes 2.48759
273
root 0.873683 25.3314 -3.86843 6.87333 -3.4502 0.635693
lowerback 14.9616 -0.529308 -4.41175
upperback 2.8839 -1.1357 4.30438
thorax -5.14025 -0.472007 7.33764
lowerneck -3.3645 -0.729156 -13.916
upperneck 30.2791 0.0324028 2.8846
head 10.2829 -1.22253 3.43961
rclavicle -3.57812e-015 5.56597e-014
rhumerus -23.2126 11.2684 -72.7528
rradius 38.7308
rwrist 2.74756
rhand -10.8105 9.66891
rfingers 7.12502
rthumb 15.203 -19.7525
lclavicle -3.57812e-015 5.56597e-014
lhumerus -37.2191 -0.0842139 65.1298
lradius 34.1186
lwrist -13.8521
lhand -20.7051 17.7698
lfingers 7.12502
lthumb 5.65905 47.6742
rfemur -25.6401 -6.84887 24.1762
rtibia 41.6421
rfoot 20.6106 -4.79876
rtoes 9.98575
lfemur -25.8477 4.09724 -20.4386
ltibia 43.0729
lfoot 22.1166 -4.12235
ltoes 2.88826
274
root 0.8751 25.3014 -3.70328 7.13911 -3.5875 0.488463
lowerback 15.2471 -0.493779 -4.35591
upperback 2.70836 -1.08019 4.38479
thorax -5.49235 -0.426784 7.39982
lowerneck -2.87094 -0.684436 -13.7209
upperneck 30.2767 0.0880864 2.50977
head 10.1876 -1.21555 3.27286
rclavicle -8.34896e-015 -3.02153e-014
rhumerus -23.2214 10.1206 -72.9525
rradius 36.9054
rwrist 3.41402
rhand -11.274 10.1271
rfingers 7.12502
rthumb 14.7565 -19.3276
lclavicle -8.34896e-015 -3.02153e-014
lhumerus -38.096 0.223894 65.5647
lradius 33.4721
lwrist -15.8705
lhand -21.5517 16.5392
lfingers 7.12502
lthumb 4.84167 46.4639
rfemur -26.7334 -6.69881 24.4947
rtibia 41.1015
rfoot 20.1049 -4.29723
rtoes 8.60876
lfemur -26.8295 4.07921 -20.2799
ltibia 42.5018
lfoot 21.2642 -3.97254
ltoes 1.86476
275
root 0.877739 25.2602 -3.53347 7.26273 -3.66923 0.369995
lowerback 15.6814 -0.48336 -4.31475
upperback 2.60458 -1.06395 4.46263
thorax -5.8431 -0.402567 7.47954
lowerneck -2.78669 -0.676129 -13.6622
upperneck 30.6228 0.164454 2.21518
head 10.3024 -1.22094 3.16898
rclavicle -4.17448e-014 -7.15625e-015
rhumerus -23.238 9.25742 -73.1255
rradius 35.342
rwrist 4.35301
rhand -13.0858 12.4457
rfingers 7.12502
rthumb 13.0105 -17.1286
lclavicle -4.17448e-014 -7.15625e-015
lhumerus -38.7768 0.998471 65.7418
lradius 32.8916
lwrist -17.6522
lhand -21.6656 15.536
lfingers 7.12502
lthumb 4.73166 45.4632
rfemur -27.6089 -6.65904 24.727
rtibia 40.5449
rfoot 19.5899 -3.66883
rtoes 7.63234
lfemur -27.5741 3.99872 -20.1326
ltibia 41.7948
lfoot 20.6648 -3.80162
ltoes 0.914394
276
root 0.881623 25.2101 -3.36249 7.39862 -3.70781 0.247966
lowerback 16.0884 -0.435346 -4.21724
upperback 2.58256 -0.986632 4.55727
thorax -6.10192 -0.355056 7.52907
lowerneck -2.81555 -0.653525 -13.7007
upperneck 30.6631 0.217561 2.17979
head 10.3202 -1.20562 3.16842
rclavicle 3.97569e-015 3.18055e-015
rhumerus -23.1075 8.04948 -73.1597
rradius 34.164
rwrist 5.47419
rhand -13.3488 12.7848
rfingers 7.12502
rthumb 12.757 -16.8055
lclavicle 3.97569e-015 3.18055e-015
lhumerus -39.3034 1.84956 65.8865
lradius 32.616
lwrist -18.9555
lhand -21.2295 15.7154
lfingers 7.12502
lthumb 5.15273 45.6327
rfemur -28.4787 -6.71112 24.9499
rtibia 39.9932
rfoot 19.1508 -2.9512
rtoes 6.47502
lfemur -28.2557 3.83812 -19.9313
ltibia 40.9868
lfoot 20.0099 -3.38188
ltoes 0.808706
277
root 0.885232 25.1484 -3.18432 7.64104 -3.76987 0.285095
lowerback 16.3133 -0.359949 -4.16912
upperback 2.50415 -0.88307 4.54552
thorax -6.32711 -0.294515 7.47823
lowerneck -2.76204 -0.704786 -13.8089
upperneck 30.4687 0.108759 2.32373
head 10.2447 -1.24254 3.22546
rclavicle 1.31198e-014 2.70347e-014
rhumerus -23.4845 6.80911 -73.2386
rradius 33.6425
rwrist 6.58135
rhand -11.7182 10.67
rfingers 7.12502
rthumb 14.3286 -18.8156
lclavicle 1.31198e-014 2.70347e-014
lhumerus -40.2713 2.2571 66.0325
lradius 33.0419
lwrist -19.3159
lhand -21.441 16.1464
lfingers 7.12502
lthumb 4.94855 46.0687
rfemur -29.4719 -6.62819 24.9641
rtibia 39.4558
rfoot 18.8722 -2.53852
rtoes 6.91947
lfemur -29.0186 3.53116 -19.8937
ltibia 40.0873
lfoot 19.4573 -2.9767
ltoes 0.147139
278
root 0.888227 25.0679 -3.006 7.94729 -4.00434 0.280865
lowerback 16.4039 -0.260989 -4.18391
upperback 2.38988 -0.75534 4.54505
thorax -6.52025 -0.221133 7.46674
lowerneck -2.91107 -0.783329 -13.5811
upperneck 30.7185 0.0905465 1.9908
head 10.3738 -1.27155 3.06931
rclavicle -2.5842e-014 2.14687e-014
rhumerus -24.176 5.91648 -73.4115
rradius 33.6062
rwrist 7.51131
rhand -10.7231 9.68781
rfingers 7.12502
rthumb 15.2872 -19.7272
lclavicle -2.5842e-014 2.14687e-014
lhumerus -41.3636 2.82262 66.014
lradius 33.5862
lwrist -19.0811
lhand -21.9134 15.5171
lfingers 7.12502
lthumb 4.49242 45.4495
rfemur -30.5502 -6.28195 24.9941
rtibia 38.9215
rfoot 18.7023 -2.17687
rtoes 7.35446
lfemur -29.7772 3.23631 -19.7674
ltibia 39.0954
lfoot 19.0947 -2.40557
ltoes 0.0379315
279
root 0.892415 24.9748 -2.83043 8.2312 -4.25923 0.246317
lowerback 16.6017 -0.154713 -4.2037
upperback 2.26835 -0.620141 4.55865
thorax -6.78129 -0.141062 7.47589
lowerneck -3.56845 -0.845576 -13.0504
upperneck 31.6355 0.226767 1.39733
head 10.8476 -1.25554 2.79242
rclavicle -1.07344e-014 2.70347e-014
rhumerus -25.0292 5.1962 -73.5711
rradius 34.0582
rwrist 8.27588
rhand -10.8921 10.7091
rfingers 7.12502
rthumb 15.1244 -18.7183
lclavicle -1.07344e-014 2.70347e-014
lhumerus -42.6435 3.3781 65.9508
lradius 34.4722
lwrist -17.9892
lhand -21.9715 15.5484
lfingers 7.12502
lthumb 4.4363 45.4819
rfemur -31.6157 -5.99908 25.049
rtibia 38.4054
rfoot 18.5442 -1.79017
rtoes 7.07236
lfemur -30.4447 2.9572 -19.5907
ltibia 37.9876
lfoot 18.9268 -2.04903
ltoes -0.263185
